<svg width="140" height="33" viewBox="0 0 140 33" fill="none" xmlns="http://www.w3.org/2000/svg">
<path d="M27.5657 5.9681L27.566 5.96831C32.0086 9.70781 31.3307 15.7816 28.1903 18.9916L28.1897 18.9922L18.4454 28.9171C17.796 29.5793 16.9285 29.9446 15.9996 29.9446C15.0743 29.9446 14.202 29.5725 13.5539 28.9118C13.5538 28.9117 13.5538 28.9116 13.5537 28.9115L3.80945 18.9867L3.80916 18.9864C0.662189 15.7757 -0.00330889 9.70188 4.43301 5.96842L27.5657 5.9681ZM27.5657 5.9681C24.2584 3.18797 19.255 3.51081 15.9996 6.48932M27.5657 5.9681L15.9996 6.48932M25.205 8.77142C23.2757 7.14687 20.2372 7.35642 18.3007 9.32824L16.3566 11.3108L15.9996 11.6748L15.6426 11.3108L13.6984 9.32823C11.7728 7.36737 8.73398 7.14681 6.79357 8.77742L25.205 8.77142ZM25.205 8.77142C27.7859 10.9476 27.4174 14.5379 25.5761 16.4144C25.5761 16.4144 25.576 16.4144 25.576 16.4145L15.9996 26.1684M25.205 8.77142L15.9996 26.1684M15.9996 6.48932C12.7445 3.51085 7.741 3.18216 4.43319 5.96827L15.9996 6.48932ZM15.9996 26.1684L6.42308 16.4144C4.5656 14.5219 4.20736 10.9542 6.79347 8.7775L15.9996 26.1684ZM15.8281 26.3425C15.8281 26.3425 15.829 26.3416 15.8308 26.3402C15.829 26.3419 15.8281 26.3426 15.8281 26.3425ZM16.1711 26.3425C16.1711 26.3426 16.1702 26.3419 16.1684 26.3402C16.1701 26.3416 16.171 26.3425 16.1711 26.3425Z" fill="#252A34" stroke="#252A34"/>
<path d="M31.15 5.34C32.51 5.34 33.62 5.53 34.48 5.91C35.34 6.29 36.11 6.75 36.79 7.29C37.03 7.47 37.23 7.56 37.39 7.56C37.77 7.56 38.02 6.96 38.14 5.76H38.83C38.79 6.54 38.76 7.49 38.74 8.61C38.72 9.71 38.71 11.18 38.71 13.02H38.02C37.88 11.82 37.66 10.78 37.36 9.9C37.08 9 36.55 8.23 35.77 7.59C35.29 7.13 34.69 6.77 33.97 6.51C33.27 6.25 32.56 6.12 31.84 6.12C30.74 6.12 29.8 6.41 29.02 6.99C28.24 7.55 27.6 8.32 27.1 9.3C26.6 10.28 26.23 11.39 25.99 12.63C25.75 13.85 25.63 15.12 25.63 16.44C25.63 20.04 26.12 22.67 27.1 24.33C28.1 25.99 29.53 26.82 31.39 26.82C31.87 26.82 32.29 26.76 32.65 26.64C33.01 26.52 33.3 26.38 33.52 26.22C33.8 26.02 33.99 25.81 34.09 25.59C34.19 25.35 34.24 25.04 34.24 24.66V21.72C34.24 20.8 34.16 20.12 34 19.68C33.86 19.22 33.57 18.91 33.13 18.75C32.69 18.59 32.05 18.5 31.21 18.48V17.88C31.63 17.9 32.13 17.92 32.71 17.94C33.31 17.94 33.93 17.95 34.57 17.97C35.21 17.97 35.8 17.97 36.34 17.97C37.18 17.97 37.95 17.96 38.65 17.94C39.35 17.92 39.92 17.9 40.36 17.88V18.48C39.98 18.5 39.69 18.57 39.49 18.69C39.31 18.81 39.18 19.05 39.1 19.41C39.04 19.77 39.01 20.32 39.01 21.06V27H38.41C38.39 26.66 38.31 26.29 38.17 25.89C38.05 25.49 37.84 25.29 37.54 25.29C37.4 25.29 37.21 25.33 36.97 25.41C36.75 25.47 36.4 25.64 35.92 25.92C35.18 26.34 34.4 26.7 33.58 27C32.76 27.28 31.9 27.42 31 27.42C28.68 27.42 26.72 26.99 25.12 26.13C23.52 25.27 22.31 24.04 21.49 22.44C20.69 20.82 20.29 18.88 20.29 16.62C20.29 14.34 20.75 12.36 21.67 10.68C22.61 9 23.89 7.69 25.51 6.75C27.15 5.81 29.03 5.34 31.15 5.34ZM45.6805 3.75C46.5205 3.75 47.1805 3.96 47.6605 4.38C48.1605 4.78 48.4105 5.34 48.4105 6.06C48.4105 6.78 48.1605 7.35 47.6605 7.77C47.1805 8.17 46.5205 8.37 45.6805 8.37C44.8405 8.37 44.1705 8.17 43.6705 7.77C43.1905 7.35 42.9505 6.78 42.9505 6.06C42.9505 5.34 43.1905 4.78 43.6705 4.38C44.1705 3.96 44.8405 3.75 45.6805 3.75ZM48.0205 11.16V24.21C48.0205 25.05 48.1605 25.62 48.4405 25.92C48.7405 26.22 49.2405 26.37 49.9405 26.37V27C49.5805 26.98 49.0205 26.96 48.2605 26.94C47.5005 26.9 46.7305 26.88 45.9505 26.88C45.1705 26.88 44.3805 26.9 43.5805 26.94C42.7805 26.96 42.1805 26.98 41.7805 27V26.37C42.4805 26.37 42.9705 26.22 43.2505 25.92C43.5505 25.62 43.7005 25.05 43.7005 24.21V14.76C43.7005 13.86 43.5605 13.2 43.2805 12.78C43.0205 12.34 42.5205 12.12 41.7805 12.12V11.49C42.4205 11.55 43.0405 11.58 43.6405 11.58C44.4805 11.58 45.2605 11.55 45.9805 11.49C46.7205 11.41 47.4005 11.3 48.0205 11.16ZM65.6163 11.49V12.09C65.2363 12.19 64.8763 12.43 64.5363 12.81C64.1963 13.17 63.8663 13.79 63.5463 14.67L59.1663 27.06C58.8463 27.04 58.5163 27.03 58.1763 27.03C57.8563 27.03 57.5363 27.04 57.2163 27.06L51.8763 13.8C51.5563 13.02 51.2363 12.55 50.9163 12.39C50.6163 12.21 50.3562 12.12 50.1362 12.12V11.49C50.7763 11.53 51.4363 11.57 52.1163 11.61C52.8163 11.63 53.5763 11.64 54.3963 11.64C55.0163 11.64 55.6663 11.63 56.3463 11.61C57.0463 11.57 57.6963 11.53 58.2963 11.49V12.12C57.8763 12.12 57.4963 12.14 57.1563 12.18C56.8363 12.22 56.6163 12.35 56.4963 12.57C56.3763 12.79 56.3963 13.18 56.5563 13.74L60.0663 23.04L59.7663 23.46L62.1363 16.89C62.5163 15.81 62.6763 14.93 62.6163 14.25C62.5563 13.55 62.3363 13.03 61.9563 12.69C61.5763 12.33 61.0663 12.13 60.4263 12.09V11.49C60.7263 11.51 61.0463 11.53 61.3863 11.55C61.7463 11.55 62.0863 11.56 62.4063 11.58C62.7463 11.58 63.0463 11.58 63.3063 11.58C63.7063 11.58 64.1263 11.57 64.5663 11.55C65.0063 11.53 65.3563 11.51 65.6163 11.49ZM73.6612 11.07C75.4212 11.07 76.8012 11.59 77.8012 12.63C78.8012 13.67 79.3012 15.37 79.3012 17.73H69.4312L69.3712 17.16H75.5212C75.5412 16.18 75.4812 15.28 75.3412 14.46C75.2012 13.62 74.9812 12.95 74.6812 12.45C74.3812 11.95 73.9812 11.7 73.4812 11.7C72.7812 11.7 72.1812 12.14 71.6812 13.02C71.2012 13.9 70.9112 15.36 70.8112 17.4L70.9012 17.58C70.8812 17.82 70.8612 18.07 70.8412 18.33C70.8412 18.59 70.8412 18.86 70.8412 19.14C70.8412 20.52 71.0312 21.64 71.4112 22.5C71.8112 23.36 72.3112 23.99 72.9112 24.39C73.5112 24.77 74.1212 24.96 74.7412 24.96C75.1612 24.96 75.5912 24.9 76.0312 24.78C76.4912 24.64 76.9512 24.4 77.4112 24.06C77.8712 23.7 78.3012 23.2 78.7012 22.56L79.2412 22.74C79.0012 23.5 78.6212 24.24 78.1012 24.96C77.5812 25.68 76.9212 26.27 76.1212 26.73C75.3212 27.19 74.3612 27.42 73.2412 27.42C71.8812 27.42 70.6812 27.13 69.6412 26.55C68.6012 25.97 67.7812 25.09 67.1812 23.91C66.6012 22.73 66.3112 21.23 66.3112 19.41C66.3112 17.55 66.6212 16 67.2412 14.76C67.8812 13.52 68.7512 12.6 69.8512 12C70.9712 11.38 72.2412 11.07 73.6612 11.07ZM108.074 5.76V6.36C107.634 6.52 107.174 6.87 106.694 7.41C106.214 7.93 105.794 8.77 105.434 9.93L100.154 27.06C99.9935 27.04 99.8235 27.03 99.6435 27.03C99.4635 27.03 99.2835 27.03 99.1035 27.03C98.9235 27.03 98.7435 27.03 98.5635 27.03C98.3835 27.03 98.2135 27.04 98.0535 27.06L91.7535 7.98C91.5535 7.36 91.3035 6.94 91.0035 6.72C90.7235 6.5 90.4235 6.38 90.1035 6.36V5.76C90.6635 5.78 91.3235 5.8 92.0835 5.82C92.8635 5.84 93.6335 5.85 94.3935 5.85C95.2735 5.85 96.0935 5.84 96.8535 5.82C97.6335 5.8 98.2535 5.78 98.7135 5.76V6.36C98.1135 6.38 97.6335 6.45 97.2735 6.57C96.9335 6.69 96.7335 6.92 96.6735 7.26C96.6335 7.6 96.7335 8.14 96.9735 8.88L101.234 21.9L100.544 23.13L103.934 12.36C104.414 10.84 104.644 9.65 104.624 8.79C104.604 7.93 104.374 7.32 103.934 6.96C103.494 6.58 102.864 6.38 102.044 6.36V5.76C102.724 5.78 103.364 5.8 103.964 5.82C104.564 5.84 105.164 5.85 105.764 5.85C106.224 5.85 106.644 5.84 107.024 5.82C107.424 5.8 107.774 5.78 108.074 5.76ZM86.6535 5.76V6.36C86.2535 6.42 85.9735 6.57 85.8135 6.81C85.6535 7.03 85.5835 7.33 85.6035 7.71C85.6435 8.07 85.7335 8.46 85.8735 8.88L90.4635 22.2L89.6535 23.28L93.4935 12.06L93.9135 12.87L89.2035 27.06C89.0435 27.04 88.8735 27.03 88.6935 27.03C88.5135 27.03 88.3335 27.03 88.1535 27.03C87.9735 27.03 87.7935 27.03 87.6135 27.03C87.4335 27.03 87.2635 27.04 87.1035 27.06L80.3835 8.28C80.1235 7.54 79.8135 7.04 79.4535 6.78C79.1135 6.52 78.7935 6.38 78.4935 6.36V5.76C79.0935 5.78 79.8035 5.8 80.6235 5.82C81.4435 5.84 82.2235 5.85 82.9635 5.85C83.7635 5.85 84.4735 5.84 85.0935 5.82C85.7335 5.8 86.2535 5.78 86.6535 5.76ZM114.237 11.07C115.997 11.07 117.377 11.59 118.377 12.63C119.377 13.67 119.877 15.37 119.877 17.73H110.007L109.947 17.16H116.097C116.117 16.18 116.057 15.28 115.917 14.46C115.777 13.62 115.557 12.95 115.257 12.45C114.957 11.95 114.557 11.7 114.057 11.7C113.357 11.7 112.757 12.14 112.257 13.02C111.777 13.9 111.487 15.36 111.387 17.4L111.477 17.58C111.457 17.82 111.437 18.07 111.417 18.33C111.417 18.59 111.417 18.86 111.417 19.14C111.417 20.52 111.607 21.64 111.987 22.5C112.387 23.36 112.887 23.99 113.487 24.39C114.087 24.77 114.697 24.96 115.317 24.96C115.737 24.96 116.167 24.9 116.607 24.78C117.067 24.64 117.527 24.4 117.987 24.06C118.447 23.7 118.877 23.2 119.277 22.56L119.817 22.74C119.577 23.5 119.197 24.24 118.677 24.96C118.157 25.68 117.497 26.27 116.697 26.73C115.897 27.19 114.937 27.42 113.817 27.42C112.457 27.42 111.257 27.13 110.217 26.55C109.177 25.97 108.357 25.09 107.757 23.91C107.177 22.73 106.887 21.23 106.887 19.41C106.887 17.55 107.197 16 107.817 14.76C108.457 13.52 109.327 12.6 110.427 12C111.547 11.38 112.817 11.07 114.237 11.07ZM127.735 3.51V24.21C127.735 25.05 127.875 25.62 128.155 25.92C128.455 26.22 128.955 26.37 129.655 26.37V27C129.275 26.98 128.705 26.96 127.945 26.94C127.185 26.9 126.415 26.88 125.635 26.88C124.855 26.88 124.065 26.9 123.265 26.94C122.485 26.96 121.895 26.98 121.495 27V26.37C122.195 26.37 122.685 26.22 122.965 25.92C123.265 25.62 123.415 25.05 123.415 24.21V7.11C123.415 6.21 123.275 5.55 122.995 5.13C122.735 4.69 122.235 4.47 121.495 4.47V3.84C122.135 3.9 122.755 3.93 123.355 3.93C124.175 3.93 124.955 3.9 125.695 3.84C126.435 3.76 127.115 3.65 127.735 3.51ZM137.227 3.51V24.21C137.227 25.05 137.367 25.62 137.647 25.92C137.947 26.22 138.447 26.37 139.147 26.37V27C138.767 26.98 138.197 26.96 137.437 26.94C136.677 26.9 135.907 26.88 135.127 26.88C134.347 26.88 133.557 26.9 132.757 26.94C131.977 26.96 131.387 26.98 130.987 27V26.37C131.687 26.37 132.177 26.22 132.457 25.92C132.757 25.62 132.907 25.05 132.907 24.21V7.11C132.907 6.21 132.767 5.55 132.487 5.13C132.227 4.69 131.727 4.47 130.987 4.47V3.84C131.627 3.9 132.247 3.93 132.847 3.93C133.667 3.93 134.447 3.9 135.187 3.84C135.927 3.76 136.607 3.65 137.227 3.51Z" fill="white"/>
</svg>
