<svg width="120" height="121" viewBox="0 0 120 121" fill="none" xmlns="http://www.w3.org/2000/svg">
<path d="M120 60.78C120 93.9171 93.1371 120.78 60 120.78C26.8629 120.78 0 93.9171 0 60.78C0 27.6429 26.8629 0.780029 60 0.780029C93.1371 0.780029 120 27.6429 120 60.78Z" fill="white"/>
<path fill-rule="evenodd" clip-rule="evenodd" d="M60 111.78C88.1665 111.78 111 88.9465 111 60.78C111 32.6135 88.1665 9.78003 60 9.78003C31.8335 9.78003 9 32.6135 9 60.78C9 88.9465 31.8335 111.78 60 111.78ZM60 120.78C93.1371 120.78 120 93.9171 120 60.78C120 27.6429 93.1371 0.780029 60 0.780029C26.8629 0.780029 0 27.6429 0 60.78C0 93.9171 26.8629 120.78 60 120.78Z" fill="#219D80" fill-opacity="0.15"/>
<g clip-path="url(#clip0_1_210)">
<path d="M77.3249 54.58H61.6499V60.355C61.6499 64.4491 58.3189 67.78 54.2249 67.78C50.1308 67.78 46.7999 64.4491 46.7999 60.355V47.815L40.1071 51.8369C38.1168 53.0228 36.8999 55.1781 36.8999 57.4881V62.3659L28.6499 67.1303C27.0721 68.0378 26.5255 70.0591 27.4433 71.6369L35.6933 85.93C36.6008 87.5078 38.6221 88.0441 40.1999 87.1366L50.863 80.98H64.9499C68.5902 80.98 71.5499 78.0203 71.5499 74.38H73.1999C75.0252 74.38 76.4999 72.9053 76.4999 71.08V64.48H77.3249C78.6964 64.48 79.7999 63.3766 79.7999 62.005V57.055C79.7999 55.6834 78.6964 54.58 77.3249 54.58ZM92.5564 50.7231L84.3064 36.43C83.3989 34.8522 81.3777 34.3159 79.7999 35.2234L69.1367 41.38H58.5974C57.3599 41.38 56.1533 41.7306 55.1014 42.3803L51.6468 44.5356C50.6774 45.1337 50.0999 46.1959 50.0999 47.3303V60.355C50.0999 62.6341 51.9458 64.48 54.2249 64.48C56.5039 64.48 58.3499 62.6341 58.3499 60.355V51.28H77.3249C80.5114 51.28 83.0999 53.8684 83.0999 57.055V59.9941L91.3499 55.2297C92.9277 54.3119 93.4639 52.3009 92.5564 50.7231Z" fill="#219D80"/>
</g>
<path fill-rule="evenodd" clip-rule="evenodd" d="M81.6704 4.83017C72.3907 1.23593 62.3856 0.0147047 52.5572 1.24343C50.0925 1.55156 48.5181 3.94173 49.0099 6.37641C49.5014 8.80927 51.8705 10.3633 54.3375 10.0908C56.1967 9.88548 58.086 9.78005 59.9999 9.78005C88.1665 9.78005 111 32.6135 111 60.78C111 88.9466 88.1665 111.78 59.9999 111.78C39.7673 111.78 22.2864 99.9982 14.0438 82.9211C12.9652 80.6864 10.3904 79.5033 8.06889 80.3795C5.74707 81.2558 4.55987 83.8573 5.60741 86.107C9.78895 95.0875 16.1405 102.916 24.1173 108.868C33.2976 115.718 44.2469 119.797 55.6715 120.624C67.096 121.45 78.5184 118.989 88.5889 113.531C98.6594 108.073 106.957 99.8468 112.502 89.8239C118.047 79.8009 120.606 68.4002 119.879 56.969C119.151 45.5377 115.167 34.5535 108.396 25.3144C101.625 16.0752 92.3517 8.96721 81.6704 4.83017Z" fill="white"/>
<path fill-rule="evenodd" clip-rule="evenodd" d="M54.0442 10.1147C53.9179 10.1214 53.7921 10.1233 53.667 10.1206C51.4544 10.0729 49.4566 8.5876 49.0099 6.37641C48.5181 3.94173 50.0925 1.55156 52.5572 1.24343C52.8213 1.21042 53.0855 1.17917 53.3499 1.14968C53.4078 1.14322 53.4658 1.13684 53.5238 1.13055C55.5558 0.909916 57.5942 0.793681 59.6308 0.781163C59.8555 0.779782 60.0801 0.779663 60.3047 0.780805C67.58 0.817801 74.8227 2.1779 81.6704 4.83017C89.26 7.76977 96.139 12.2094 101.914 17.8477C102.402 18.3238 102.881 18.8081 103.353 19.3004C105.157 21.186 106.842 23.1941 108.396 25.3144C115.167 34.5535 119.151 45.5377 119.879 56.969C119.952 58.115 119.992 59.2608 119.999 60.4049C120 60.6715 120 60.938 119.998 61.2044C119.928 71.1979 117.361 81.0399 112.502 89.8239C106.957 99.8468 98.6594 108.073 88.5889 113.531C79.9167 118.231 70.2419 120.709 60.4266 120.779C60.1515 120.781 59.8763 120.781 59.6009 120.779C58.2925 120.77 56.982 120.718 55.6715 120.624C44.2469 119.797 33.2976 115.718 24.1173 108.868C23.2047 108.187 22.3133 107.481 21.444 106.752C18.6944 104.446 16.1659 101.905 13.8841 99.1641C10.8129 95.4741 8.18879 91.4208 6.07491 87.0877C6.03276 87.0013 5.99081 86.9148 5.94907 86.8282C5.83362 86.5886 5.71973 86.3482 5.60741 86.107C4.55987 83.8573 5.74707 81.2558 8.06889 80.3795C10.1776 79.5836 12.4953 80.4868 13.7108 82.3339C13.7891 82.4528 13.8628 82.5756 13.9315 82.7022C13.9706 82.774 14.008 82.847 14.0438 82.9211C17.627 90.3448 22.9559 96.7677 29.4979 101.657C37.0845 107.327 46.3025 110.935 56.3206 111.649C57.4243 111.728 58.5378 111.772 59.6599 111.779C59.7731 111.78 59.8865 111.78 59.9999 111.78C60.1262 111.78 60.2524 111.78 60.3784 111.779C69.0376 111.716 77.1835 109.495 84.3052 105.627C88.5776 103.307 92.4814 100.393 95.9062 96.998C96.2003 96.7064 96.4909 96.4113 96.7778 96.1126C99.8333 92.9329 102.48 89.3579 104.635 85.4718C108.636 78.2542 110.938 69.9636 110.999 61.1408C111 61.0206 111 60.9004 111 60.78C111 60.6716 111 60.5633 110.999 60.4551C110.993 59.4768 110.959 58.505 110.899 57.5405C110.27 47.5082 106.74 38.2624 101.139 30.6322C99.7327 28.7158 98.1953 26.9014 96.5404 25.2019C96.1164 24.7665 95.6849 24.339 95.2462 23.9194C90.4401 19.3225 84.7365 15.6562 78.4248 13.2099C72.7964 11.0283 66.6843 9.81694 60.2939 9.78088C60.196 9.78032 60.098 9.78005 59.9999 9.78005C59.8901 9.78005 59.7804 9.78039 59.6708 9.78109C57.8693 9.79247 56.09 9.89726 54.3375 10.0908C54.2395 10.1017 54.1417 10.1096 54.0442 10.1147Z" fill="#219D80"/>
<defs>
<clipPath id="clip0_1_210">
<rect width="66" height="52.8" fill="white" transform="translate(27 34.78)"/>
</clipPath>
</defs>
</svg>
