<svg width="120" height="121" viewBox="0 0 120 121" fill="none" xmlns="http://www.w3.org/2000/svg">
<path d="M120 60.78C120 93.9171 93.1371 120.78 60 120.78C26.8629 120.78 0 93.9171 0 60.78C0 27.6429 26.8629 0.780029 60 0.780029C93.1371 0.780029 120 27.6429 120 60.78Z" fill="white"/>
<path fill-rule="evenodd" clip-rule="evenodd" d="M60 111.78C88.1665 111.78 111 88.9465 111 60.78C111 32.6135 88.1665 9.78003 60 9.78003C31.8335 9.78003 9 32.6135 9 60.78C9 88.9465 31.8335 111.78 60 111.78ZM60 120.78C93.1371 120.78 120 93.9171 120 60.78C120 27.6429 93.1371 0.780029 60 0.780029C26.8629 0.780029 0 27.6429 0 60.78C0 93.9171 26.8629 120.78 60 120.78Z" fill="#219D80" fill-opacity="0.15"/>
<g clip-path="url(#clip0_1_222)">
<path d="M40.2001 44.68C42.9329 44.68 45.1501 42.4628 45.1501 39.73C45.1501 36.9972 42.9329 34.78 40.2001 34.78C37.4672 34.78 35.2501 36.9972 35.2501 39.73C35.2501 42.4628 37.4672 44.68 40.2001 44.68ZM79.8001 44.68C82.5329 44.68 84.7501 42.4628 84.7501 39.73C84.7501 36.9972 82.5329 34.78 79.8001 34.78C77.0673 34.78 74.8501 36.9972 74.8501 39.73C74.8501 42.4628 77.0673 44.68 79.8001 44.68ZM92.7629 83.0528L88.2254 71.7091L83.9869 76.4941L83.7807 78.371L86.6373 85.5072C87.1529 86.7963 88.3904 87.58 89.7001 87.58C90.1126 87.58 90.5251 87.5078 90.9273 87.3428C92.6185 86.6622 93.4435 84.7441 92.7629 83.0528ZM89.236 61.4172L87.3282 53.1466C86.8538 51.0841 85.4101 49.3516 83.461 48.5163C81.5532 47.6913 79.4391 47.8253 77.6757 48.8566C75.3348 50.2385 73.5816 52.4144 72.7154 54.9822L71.5501 58.4782L69.9001 59.53V49.63C69.9001 48.7225 69.1576 47.98 68.2501 47.98H51.7501C50.8426 47.98 50.1001 48.7225 50.1001 49.63V59.53L48.4397 58.4782L47.2744 54.9822C46.4185 52.4041 44.6551 50.2385 42.3141 48.8566C40.5404 47.8253 38.4366 47.6913 36.5288 48.5163C34.5797 49.3516 33.136 51.0841 32.6616 53.1466L30.7641 61.4172C30.2897 63.4797 30.8363 65.666 32.2491 67.2644L39.1791 75.0916L40.2207 84.641C40.4063 86.3219 41.8294 87.58 43.5001 87.58C43.6238 87.58 43.7372 87.5697 43.861 87.5594C45.676 87.3635 46.9754 85.7341 46.7794 83.9191L45.7379 74.3491C45.5832 73.0085 45.0263 71.7607 44.1291 70.7397L39.6638 65.6866L41.4788 58.4369L42.1801 60.5407C42.6029 61.8297 43.4072 62.9538 44.7066 63.9025L49.9763 67.2541C50.4507 67.5532 51.2241 67.7285 51.7501 67.7697H68.2501C68.776 67.7285 69.5494 67.5532 70.0238 67.2541L75.2935 63.9025C76.5929 62.9538 77.3973 61.84 77.8201 60.5407L78.5213 58.4369L80.3363 65.6866L75.871 70.7397C74.9738 71.7607 74.4169 73.0085 74.2623 74.3491L73.2207 83.9191C73.0248 85.7341 74.3345 87.3635 76.1391 87.5594C76.2629 87.5697 76.3763 87.58 76.5001 87.58C78.1604 87.58 79.5938 86.3322 79.7795 84.641L80.821 75.0916L87.751 67.2644C89.1535 65.666 89.7104 63.4797 89.236 61.4172ZM31.7747 71.7091L27.2372 83.0528C26.5566 84.7441 27.3816 86.6622 29.0729 87.3428C30.8054 88.0235 32.6926 87.1675 33.3629 85.5072L36.2194 78.371L36.0132 76.4941L31.7747 71.7091Z" fill="#219D80"/>
</g>
<path fill-rule="evenodd" clip-rule="evenodd" d="M77.643 3.43261C66.6245 0.042769 54.8946 -0.0921073 43.8522 2.99376C41.4624 3.66161 40.2589 6.25528 41.1037 8.58843C41.9485 10.9217 44.5214 12.1075 46.9203 11.4728C51.0945 10.3684 55.4786 9.78003 60.0001 9.78003C88.1666 9.78003 111 32.6135 111 60.78C111 88.9465 88.1666 111.78 60.0001 111.78C31.8335 111.78 9.00007 88.9465 9.00007 60.78C9.00007 60.4599 9.00302 60.1404 9.00889 59.8217C9.05465 57.3387 7.28698 55.1219 4.81768 54.8569C2.34625 54.5916 0.109915 56.3812 0.0305711 58.8656C-0.335336 70.3226 2.589 81.68 8.50392 91.572C15.191 102.755 25.3369 111.458 37.4081 116.364C49.4793 121.271 62.8195 122.114 75.4125 118.767C88.0054 115.42 99.1665 108.064 107.209 97.8118C115.251 87.5595 119.737 74.9679 119.989 61.9402C120.241 48.9125 116.245 36.1568 108.605 25.6013C100.965 15.0457 90.0971 7.26411 77.643 3.43261Z" fill="#C4C4C4"/>
<path fill-rule="evenodd" clip-rule="evenodd" d="M46.6867 11.5288C46.544 11.5595 46.4009 11.5838 46.2578 11.602C44.0643 11.8805 41.871 10.7079 41.1037 8.58843C40.2589 6.25528 41.4624 3.66161 43.8522 2.99376C44.1083 2.9222 44.3647 2.85237 44.6215 2.78427C44.7178 2.75874 44.8142 2.73345 44.9105 2.70841C49.8127 1.43455 54.8407 0.790813 59.8733 0.780164C59.9622 0.779976 60.0511 0.779985 60.14 0.780192C66.0356 0.793917 71.9348 1.67647 77.643 3.43261C86.5797 6.18198 94.6999 10.9653 101.396 17.3479C101.621 17.5618 101.844 17.7775 102.065 17.9949C102.357 18.2822 102.646 18.5724 102.932 18.8656C103.1 19.0373 103.267 19.2099 103.432 19.3836C105.286 21.329 107.016 23.4051 108.605 25.6013C115.997 35.8141 119.977 48.0864 120 60.6721C120 60.7081 120 60.744 120 60.78M46.6867 11.5288C46.7647 11.512 46.8426 11.4934 46.9203 11.4728C51.051 10.3799 55.3872 9.79236 59.8587 9.78022C59.9058 9.7801 59.9529 9.78003 60.0001 9.78003C60.051 9.78003 60.102 9.78011 60.1529 9.78026C65.3189 9.79541 70.3042 10.5786 75.0005 12.0218C82.7344 14.3983 89.6849 18.5643 95.3686 24.0367C95.8523 24.5024 96.3268 24.9775 96.7918 25.4618C98.4208 27.1584 99.9336 28.9673 101.317 30.8759C107.38 39.238 110.966 49.5126 111 60.6233C111 60.6755 111 60.7278 111 60.78C111 60.8157 111 60.8513 111 60.887C110.999 61.1806 110.996 61.4737 110.991 61.7662C110.773 73.2635 106.75 83.8297 100.129 92.2584C93.389 100.839 83.9563 107.204 73.1039 110.081C69.0208 111.163 64.7368 111.752 60.3196 111.779C60.2132 111.78 60.1067 111.78 60.0001 111.78C59.9099 111.78 59.8198 111.78 59.7297 111.779C53.033 111.745 46.6417 110.419 40.7918 108.039C34.7769 105.592 29.3344 102.03 24.7209 97.6091C24.1615 97.0732 23.6141 96.5245 23.0792 95.9632C20.4758 93.2321 18.1723 90.2125 16.2217 86.9572C11.7345 79.469 9.11408 70.7339 9.00371 61.3951C9.00129 61.1904 9.00007 60.9854 9.00007 60.78C9.00007 60.5883 9.00113 60.3969 9.00324 60.2057C9.00465 60.0776 9.00654 59.9496 9.00889 59.8217C9.01091 59.7121 9.0094 59.603 9.00445 59.4946C8.99919 59.3794 8.99004 59.2649 8.97712 59.1513C8.7269 56.9511 7.06213 55.0978 4.81768 54.8569C2.34625 54.5916 0.109915 56.3812 0.0305711 58.8656C0.0221555 59.1291 0.0153619 59.3925 0.0104235 59.6559C0.0102496 59.6652 0.0101963 59.6744 0.0100267 59.6837C0.00745935 59.8241 0.00538552 59.9645 0.00380464 60.1049C-0.00123404 60.5522 -0.00126501 60.9993 0.00369401 61.4462C0.121061 72.0212 3.03349 82.4233 8.50392 91.572C10.8146 95.4364 13.5383 99.0046 16.6117 102.222C17.1772 102.814 17.7548 103.395 18.3439 103.963C23.8156 109.241 30.2758 113.465 37.4081 116.364C44.7443 119.346 52.5492 120.827 60.3703 120.779C65.4182 120.748 70.4728 120.08 75.4125 118.767C85.2038 116.164 94.1294 111.139 101.396 104.212C101.57 104.047 101.743 103.88 101.914 103.712C102.212 103.422 102.507 103.128 102.799 102.831C103.011 102.614 103.223 102.396 103.432 102.176C104.756 100.788 106.017 99.3315 107.209 97.8118C115.251 87.5595 119.737 74.9679 119.989 61.9402C119.996 61.5744 120 61.2088 120 60.8434" fill="#219D80"/>
<defs>
<clipPath id="clip0_1_222">
<rect width="66" height="52.8" fill="white" transform="translate(27 34.78)"/>
</clipPath>
</defs>
</svg>
