<svg width="120" height="121" viewBox="0 0 120 121" fill="none" xmlns="http://www.w3.org/2000/svg">
<path d="M120 60.78C120 93.9171 93.1371 120.78 60 120.78C26.8629 120.78 0 93.9171 0 60.78C0 27.6429 26.8629 0.780029 60 0.780029C93.1371 0.780029 120 27.6429 120 60.78Z" fill="white"/>
<path fill-rule="evenodd" clip-rule="evenodd" d="M60 111.78C88.1665 111.78 111 88.9465 111 60.78C111 32.6135 88.1665 9.78003 60 9.78003C31.8335 9.78003 9 32.6135 9 60.78C9 88.9465 31.8335 111.78 60 111.78ZM60 120.78C93.1371 120.78 120 93.9171 120 60.78C120 27.6429 93.1371 0.780029 60 0.780029C26.8629 0.780029 0 27.6429 0 60.78C0 93.9171 26.8629 120.78 60 120.78Z" fill="#219D80" fill-opacity="0.15"/>
<g clip-path="url(#clip0_1_234)">
<path d="M64.1252 49.3331V45.7108C60.49 41.0315 58.0537 35.4886 57.1513 29.5718C56.8806 27.8315 54.7021 27.1483 53.5677 28.5018C50.8478 31.7116 48.708 35.4757 47.2642 39.6522C51.6728 44.5894 57.5767 47.9796 64.1252 49.3331ZM78.5627 36.03C72.865 36.03 68.2502 40.6577 68.2502 46.3554V54.0124C54.7924 53.2132 43.3713 44.9245 38.215 33.1683C37.506 31.5569 35.2244 31.4667 34.4767 33.0522C32.3369 37.5769 31.1252 42.63 31.1252 47.9667C31.1252 57.0933 35.5209 65.614 42.0951 71.9304C43.7966 73.5675 45.4595 74.921 47.1095 76.1585L28.5599 80.7991C27.1806 81.1472 26.5619 82.7456 27.3353 83.9444C29.5783 87.412 35.1213 93.2901 47.0838 93.78C48.115 93.8187 49.1463 93.4448 49.9326 92.7616L58.3373 85.53H68.2502C79.6455 85.53 88.8752 76.3132 88.8752 64.9179V44.28L93.0002 36.03H78.5627ZM78.5627 48.4179C77.4283 48.4179 76.5002 47.4897 76.5002 46.3554C76.5002 45.221 77.4283 44.2929 78.5627 44.2929C79.697 44.2929 80.6252 45.221 80.6252 46.3554C80.6252 47.4897 79.697 48.4179 78.5627 48.4179Z" fill="#219D80"/>
</g>
<path fill-rule="evenodd" clip-rule="evenodd" d="M89.6437 8.61454C78.365 2.20532 65.3507 -0.356116 52.5574 1.24346C50.0927 1.55162 48.5182 3.94184 49.01 6.37652C49.5015 8.80937 51.8706 10.3635 54.3376 10.091C56.1967 9.88558 58.0861 9.78016 60 9.78016C88.1665 9.78016 111 32.6136 111 60.7802C111 88.9467 88.1665 111.78 60 111.78C31.8335 111.78 9 88.9467 9 60.7802C9 47.7367 13.8966 35.8368 21.9518 26.8186C23.6073 24.9652 23.7137 22.1299 22.0128 20.3181C20.3115 18.506 17.4492 18.4055 15.7697 20.2377C7.05837 29.741 1.61089 41.8336 0.30488 54.7392C-1.15266 69.1423 2.64638 83.5866 11.0015 95.4088C19.3566 107.231 31.7043 115.634 45.7677 119.068C59.8312 122.502 74.6619 120.735 87.5253 114.094C100.389 107.453 110.417 96.3846 115.762 82.9307C121.106 69.4767 121.406 54.5441 116.606 40.8864C111.806 27.2287 102.23 15.7669 89.6437 8.61454Z" fill="#C4C4C4"/>
<path fill-rule="evenodd" clip-rule="evenodd" d="M54.044 10.1148C53.9179 10.1215 53.7923 10.1234 53.6673 10.1207C51.4546 10.0731 49.4567 8.58782 49.01 6.37652C48.5182 3.94184 50.0927 1.55162 52.5574 1.24346C52.8215 1.21044 53.0857 1.1792 53.3499 1.14972C53.4074 1.14331 53.4648 1.13699 53.5223 1.13074C55.3549 0.931692 57.191 0.817731 59.0249 0.787941C59.6227 0.778232 60.2202 0.777465 60.8173 0.785607C70.8646 0.922632 80.7891 3.5828 89.6437 8.61454C93.9344 11.0528 97.8753 13.9919 101.396 17.348C102.06 17.9806 102.709 18.6282 103.343 19.2903C109.206 25.4155 113.751 32.7625 116.606 40.8864C118.871 47.3302 120 54.0579 120 60.7802C120 68.3057 118.584 75.8244 115.762 82.9307C112.855 90.2477 108.563 96.859 103.183 102.436C102.618 103.022 102.042 103.596 101.454 104.158C97.3407 108.088 92.6588 111.444 87.5253 114.094C79.1567 118.415 69.9555 120.672 60.6745 120.776C60.1887 120.782 59.7028 120.781 59.2167 120.775C54.7146 120.716 50.203 120.151 45.7677 119.068C34.4843 116.313 24.3054 110.359 16.4068 102.007C14.4608 99.9492 12.6531 97.7458 11.0015 95.4088C3.98626 85.4825 0.182989 73.7076 0.00632625 61.6607C-0.00194881 61.0964 -0.00226678 60.5315 0.00541498 59.9662C0.0290558 58.2264 0.128464 56.4825 0.30488 54.7392C1.58237 42.1154 6.82245 30.2694 15.2037 20.8639C15.2158 20.8504 15.2278 20.8369 15.2399 20.8234C15.4151 20.6271 15.5917 20.4318 15.7697 20.2377C17.4492 18.4055 20.3115 18.506 22.0128 20.3181C23.5579 21.9638 23.6117 24.4541 22.3677 26.2859C22.303 26.3812 22.2348 26.4747 22.1631 26.5662C22.0957 26.6521 22.0253 26.7363 21.9518 26.8186C14.967 34.6385 10.3571 44.6249 9.25532 55.645C9.10792 57.1191 9.02331 58.6118 9.00418 60.1202C9.00139 60.3399 9 60.5599 9 60.7802C9 61.03 9.00179 61.2795 9.00538 61.5285C9.15897 72.2066 12.5942 82.0906 18.3479 90.2169C19.7448 92.1899 21.2784 94.0593 22.9348 95.8114C23.5738 96.4872 24.231 97.1455 24.9057 97.7856C31.2451 103.8 39.1286 108.202 47.8998 110.336C51.5723 111.23 55.4005 111.726 59.3361 111.776C59.5571 111.779 59.7784 111.78 60 111.78C60.1908 111.78 60.3813 111.779 60.5715 111.777C68.7949 111.687 76.5511 109.65 83.4014 106.106C94.2683 100.484 102.855 91.0693 107.41 79.6131C109.726 73.7866 111 67.4321 111 60.7802C111 54.8514 109.988 49.1588 108.128 43.8658C105.7 36.956 101.825 30.727 96.8683 25.5419C96.2693 24.9152 95.6541 24.3035 95.0232 23.7075C92.0622 20.9092 88.7662 18.4618 85.2015 16.4317C77.9738 12.3156 69.6418 9.91547 60.7601 9.7857C60.5072 9.78201 60.2538 9.78016 60 9.78016C59.7217 9.78016 59.4439 9.78238 59.1666 9.78683C57.5372 9.81293 55.9264 9.91545 54.3376 10.091C54.2395 10.1018 54.1416 10.1097 54.044 10.1148Z" fill="#219D80"/>
<defs>
<clipPath id="clip0_1_234">
<rect width="66" height="66" fill="white" transform="translate(27 27.78)"/>
</clipPath>
</defs>
</svg>
