<svg width="120" height="121" viewBox="0 0 120 121" fill="none" xmlns="http://www.w3.org/2000/svg">
<path d="M120 60.78C120 93.9171 93.1371 120.78 60 120.78C26.8629 120.78 0 93.9171 0 60.78C0 27.6429 26.8629 0.780029 60 0.780029C93.1371 0.780029 120 27.6429 120 60.78Z" fill="white"/>
<path fill-rule="evenodd" clip-rule="evenodd" d="M60 111.78C88.1665 111.78 111 88.9465 111 60.78C111 32.6135 88.1665 9.78003 60 9.78003C31.8335 9.78003 9 32.6135 9 60.78C9 88.9465 31.8335 111.78 60 111.78ZM60 120.78C93.1371 120.78 120 93.9171 120 60.78C120 27.6429 93.1371 0.780029 60 0.780029C26.8629 0.780029 0 27.6429 0 60.78C0 93.9171 26.8629 120.78 60 120.78Z" fill="#219D80" fill-opacity="0.15"/>
<path d="M60 27.8445C41.7742 27.8445 27 42.6186 27 60.8445C27 79.0703 41.7742 93.8445 60 93.8445C78.2258 93.8445 93 79.0703 93 60.8445C93 42.6186 78.2258 27.8445 60 27.8445ZM58.4911 59.8106C58.1065 60.4519 57.4132 60.8445 56.6654 60.8445H56.6242C56.06 60.8445 55.5184 61.0694 55.1192 61.4686L54.3661 62.2217C53.9509 62.6369 53.9509 63.3115 54.3661 63.7267L55.1192 64.4798C55.5184 64.879 55.7433 65.4206 55.7433 65.9848V67.2316C55.7433 68.4079 54.7905 69.3606 53.6142 69.3606H52.8012C51.9948 69.3606 51.2577 68.9055 50.8971 68.183L47.8871 62.1645C47.5625 61.5151 46.6962 61.3741 46.1826 61.8877L43.5918 64.4771C43.1926 64.8763 42.651 65.1012 42.0869 65.1012H33.761C33.5361 63.712 33.3871 62.2975 33.3871 60.8445C33.3871 46.1701 45.3256 34.2316 60 34.2316C62.8622 34.2316 65.6153 34.6986 68.2008 35.5383L61.5263 40.6652C60.8463 41.119 60.9102 42.1369 61.6407 42.5029L63.0818 43.2227C63.803 43.5834 64.2581 44.3205 64.2581 45.1269V55.5219C64.2581 56.11 63.7817 56.5864 63.1936 56.5864H62.7864C62.3832 56.5864 62.0146 56.3589 61.835 55.9983C61.6274 55.5831 61.0419 55.5605 60.8024 55.9584L58.4911 59.8106ZM81.2903 74.4743C81.2903 75.0385 81.0654 75.58 80.6663 75.9792L79.3928 77.2527C78.9936 77.6519 78.4521 77.8767 77.8879 77.8767H75.8706C75.3064 77.8767 74.7648 77.6519 74.3656 77.2527L72.6345 75.5215C72.1995 75.0866 71.6594 74.7717 71.0666 74.6075C70.4739 74.4434 69.8487 74.4355 69.252 74.5847L66.4217 75.2926C66.2527 75.3352 66.0797 75.3565 65.9054 75.3565H64.5295C63.9653 75.3565 63.4238 75.1316 63.0246 74.7324L61.4398 73.1476C61.2403 72.9478 61.1283 72.6769 61.1284 72.3945V71.0372C61.1284 70.6021 61.3932 70.2109 61.7977 70.0486L67.0325 67.9541C67.2959 67.849 67.5461 67.7119 67.7763 67.5483L70.9313 65.3008C71.1115 65.1724 71.3274 65.1036 71.5487 65.1039H73.1574C73.5872 65.1039 73.9758 65.362 74.1408 65.7599L74.8527 67.4698C74.8931 67.5667 74.9613 67.6495 75.0486 67.7077C75.136 67.766 75.2387 67.7971 75.3437 67.7971H75.8493C76.0862 67.7971 76.2951 67.6401 76.3603 67.4139L76.9192 65.4884C76.9857 65.2609 77.1933 65.1052 77.4301 65.1052H78.2365C78.5306 65.1052 78.7688 65.3434 78.7688 65.6375V67.358C78.7688 67.6401 78.8805 67.9115 79.0801 68.1111L80.6649 69.6959C81.0641 70.0951 81.289 70.6367 81.289 71.2009V74.4743H81.2903Z" fill="#219D80"/>
<path fill-rule="evenodd" clip-rule="evenodd" d="M75.4614 2.8066C67.9849 0.812657 60.2074 0.287305 52.5572 1.24369C50.0925 1.55181 48.5182 3.94196 49.01 6.37664C49.5015 8.80949 51.8706 10.3636 54.3376 10.0911C56.1968 9.8857 58.0861 9.78027 60 9.78027C88.1665 9.78027 111 32.6138 111 60.7803C111 88.9468 88.1665 111.78 60 111.78C55.6324 111.78 51.393 111.231 47.347 110.198C44.9427 109.585 42.3802 110.793 41.5557 113.133C40.7311 115.474 41.9569 118.057 44.3524 118.704C51.7968 120.715 59.5734 121.276 67.2558 120.34C76.4279 119.223 85.218 116.002 92.9408 110.929C100.664 105.856 107.11 99.0684 111.779 91.0946C116.447 83.1207 119.211 74.1764 119.854 64.959C120.498 55.7415 119.004 46.5 115.489 37.9549C111.974 29.4097 106.533 21.7918 99.5895 15.6951C92.6465 9.59842 84.3892 5.18762 75.4614 2.8066Z" fill="#C4C4C4"/>
<path fill-rule="evenodd" clip-rule="evenodd" d="M54.0444 10.1149C53.9181 10.1216 53.7922 10.1235 53.667 10.1208C51.4544 10.073 49.4567 8.5878 49.01 6.37664C48.5182 3.94196 50.0925 1.55181 52.5572 1.24369C52.8213 1.21067 53.0856 1.17942 53.3499 1.14993C53.4081 1.14345 53.4662 1.13706 53.5243 1.13075C55.6739 0.897382 57.832 0.780654 59.9894 0.780273M54.0444 10.1149C54.1419 10.1098 54.2397 10.1019 54.3376 10.0911C56.1669 9.889 58.0254 9.78369 59.9078 9.78036M111 60.6688C110.985 53.8385 109.628 47.3234 107.178 41.3736C104.166 34.0592 99.5023 27.599 93.6515 22.4574C87.8368 17.3474 80.8495 13.5398 73.1454 11.4905C68.9791 10.3822 64.6031 9.78811 60.0897 9.78035M111 60.6688C111 60.7059 111 60.7431 111 60.7803C111 60.8178 111 60.8552 111 60.8927C110.997 62.0487 110.956 63.1956 110.878 64.3323C110.323 72.3989 107.893 79.9496 104.019 86.5516C100.044 93.3269 94.5491 99.1029 88.0028 103.412C81.5876 107.634 74.1625 110.447 66.1681 111.411C64.2094 111.647 62.2166 111.772 60.1961 111.78C60.1308 111.78 60.0654 111.78 60 111.78C59.9373 111.78 59.8747 111.78 59.812 111.78C55.5107 111.764 51.3349 111.216 47.347 110.198C47.2686 110.178 47.19 110.16 47.1113 110.144C46.9689 110.115 46.8262 110.092 46.6835 110.075C44.4876 109.816 42.3047 111.007 41.5557 113.133C40.7311 115.474 41.9569 118.057 44.3524 118.704C44.6092 118.773 44.8664 118.841 45.124 118.907C45.2194 118.931 45.315 118.956 45.4105 118.979C50.112 120.158 54.9368 120.762 59.7791 120.78C59.9219 120.78 60.0648 120.78 60.2076 120.78C62.5577 120.772 64.9112 120.626 67.2558 120.34C76.4279 119.223 85.218 116.002 92.9408 110.929C100.664 105.856 107.111 99.0684 111.779 91.0946C116.447 83.1207 119.211 74.1764 119.854 64.959C119.947 63.6287 119.996 62.2978 120 60.9687C120 60.837 120 60.7053 120 60.5736C119.973 52.8272 118.446 45.1445 115.489 37.9549C112.571 30.861 108.325 24.4062 102.995 18.9302C102.639 18.5649 102.279 18.2041 101.914 17.8479C101.16 17.111 100.384 16.3931 99.5895 15.6951C92.6465 9.59842 84.3892 5.18762 75.4614 2.8066C70.4053 1.45816 65.2115 0.78136 60.0125 0.780274" fill="#219D80"/>
</svg>
